<?xml version="1.0" standalone="no"?>
<!DOCTYPE svg PUBLIC "-//W3C//DTD SVG 20010904//EN"
 "http://www.w3.org/TR/2001/REC-SVG-20010904/DTD/svg10.dtd">
<svg version="1.0" xmlns="http://www.w3.org/2000/svg"
 width="1024.000000pt" height="1024.000000pt" viewBox="0 0 1024.000000 1024.000000"
 preserveAspectRatio="xMidYMid meet">

<g transform="translate(0.000000,1024.000000) scale(0.100000,-0.100000)"
fill="#9d2626" stroke="none">
<path d="M5000 9756 c-58 -24 -233 -95 -390 -159 -157 -64 -402 -163 -545
-222 -143 -58 -444 -181 -670 -272 -468 -189 -1180 -480 -1650 -673 -176 -73
-390 -160 -475 -195 -397 -163 -365 -147 -362 -180 10 -124 262 -2672 419
-4241 l127 -1281 241 -141 c132 -77 647 -378 1145 -668 498 -290 1213 -706
1589 -926 376 -219 690 -397 696 -394 7 2 190 108 406 234 394 229 1265 735
1669 969 118 69 271 158 340 198 69 40 294 170 500 290 608 353 750 436 750
441 0 4 79 818 135 1384 73 736 187 1881 230 2305 126 1236 185 1821 185 1842
0 13 -4 23 -10 23 -5 0 -278 111 -607 246 -819 337 -1030 423 -2093 854 -349
141 -829 337 -1066 434 -237 97 -437 176 -445 176 -8 -1 -61 -20 -119 -44z
m-541 -2626 c10 0 31 -18 45 -41 25 -37 30 -40 59 -34 70 14 117 17 117 6 0
-6 -9 -11 -19 -11 -32 0 -123 -52 -134 -77 -8 -18 -7 -27 6 -41 23 -25 21 -37
-9 -57 -20 -13 -23 -19 -14 -25 9 -5 -4 -16 -40 -31 -29 -13 -47 -25 -39 -27
18 -6 49 -38 49 -51 0 -11 -40 -25 -140 -46 -41 -9 -88 -26 -103 -36 -15 -11
-46 -27 -69 -35 -58 -20 -75 -38 -112 -120 -19 -39 -38 -74 -43 -77 -6 -4 -18
2 -28 13 -10 11 -26 20 -35 20 -39 0 -99 121 -96 193 1 26 5 49 7 52 3 2 20 5
38 7 27 2 30 4 17 14 -9 6 -12 14 -8 18 4 5 0 7 -8 6 -31 -5 -60 0 -60 10 0 6
9 10 20 10 28 0 25 18 -5 26 -21 5 -23 9 -14 26 9 16 7 26 -9 47 -17 24 -27
27 -106 32 -47 3 -89 9 -93 12 -12 13 19 36 58 42 38 7 40 9 34 35 -5 23 -1
32 20 47 15 10 37 28 51 39 22 20 35 22 152 20 71 -1 136 3 147 9 20 10 308
35 333 28 8 -1 22 -3 31 -3z m-661 -25 c11 -11 -40 -44 -78 -51 -106 -18 -266
-111 -230 -133 20 -14 -27 -31 -106 -38 -47 -4 -63 -10 -67 -23 -5 -19 -47
-30 -119 -30 -53 0 -58 14 -7 24 17 3 39 17 50 30 14 18 33 25 74 31 55 6 77
25 29 25 -32 0 -23 16 19 34 24 11 27 14 12 15 -11 0 -33 -6 -50 -13 -37 -16
-68 -4 -85 32 -10 22 -9 28 7 40 10 7 33 12 51 10 21 -3 32 0 32 8 0 14 76 32
185 45 78 8 272 5 283 -6z m2806 -70 c18 -14 38 -25 45 -25 19 0 91 -24 91
-31 0 -10 -81 -18 -113 -12 -44 9 -112 47 -115 66 -2 10 6 17 25 20 15 2 29 5
31 6 2 0 18 -10 36 -24z m-1366 -6 c77 1 122 -2 122 -9 0 -10 -30 -13 -115
-15 -36 0 -40 -2 -37 -22 3 -20 -1 -23 -31 -23 -26 0 -45 10 -78 41 -44 40
-44 40 -14 34 17 -4 85 -6 153 -6z m-2108 -37 c0 -14 -23 -32 -42 -32 -10 0
-18 5 -18 10 0 6 -7 10 -15 10 -8 0 -15 5 -15 10 0 6 20 10 45 10 25 0 45 -4
45 -8z m2180 -14 c-14 -5 -33 -15 -44 -20 -13 -7 -21 -6 -27 4 -16 24 -9 28
44 27 45 0 49 -2 27 -11z m-2390 -23 c-7 -8 -27 -20 -44 -25 -28 -9 -27 -9 17
-6 35 3 54 -1 69 -14 l21 -17 -34 -17 c-21 -11 -63 -19 -109 -20 -41 -2 -67
-1 -57 1 45 12 -2 38 -50 27 -59 -13 -65 -16 -55 -26 6 -6 17 -6 30 1 31 17
40 14 57 -20 11 -21 21 -28 33 -25 20 7 160 -9 170 -19 4 -4 -1 -11 -11 -16
-23 -13 -22 -25 3 -32 11 -3 20 -10 20 -15 0 -13 -101 -26 -139 -19 -15 3 -33
1 -38 -4 -7 -7 -24 -7 -52 2 -45 13 -54 29 -17 29 13 0 29 6 35 14 17 20 -15
29 -104 31 -55 2 -71 5 -73 18 -2 9 6 22 17 29 12 7 21 19 21 26 0 7 17 20 38
28 20 8 51 21 67 28 67 29 94 38 141 45 27 5 51 9 53 10 2 0 -2 -6 -9 -14z
m3853 -7 c12 -6 44 -17 70 -23 54 -12 63 -25 30 -40 -35 -15 -27 -25 20 -25
23 0 69 -5 102 -11 33 -6 98 -12 143 -13 77 -1 86 -3 105 -27 26 -32 77 -47
77 -24 0 17 25 21 35 5 11 -17 53 -11 74 11 17 19 26 21 76 14 31 -3 89 -18
128 -31 54 -19 84 -24 118 -19 52 6 79 -1 79 -20 0 -18 35 -25 134 -24 66 0
89 4 93 15 8 22 56 17 166 -19 56 -19 135 -44 175 -56 39 -12 72 -26 72 -30 0
-4 -13 -20 -29 -35 -22 -21 -36 -27 -62 -24 -21 2 -33 8 -31 16 4 20 -26 14
-48 -10 l-21 -22 21 -16 c20 -15 18 -16 -42 -29 -50 -10 -69 -19 -89 -44 -23
-27 -29 -30 -42 -18 -41 34 -121 -26 -99 -75 9 -19 5 -35 -23 -93 -30 -60 -38
-70 -57 -68 -25 4 -66 75 -67 115 -1 33 16 61 43 72 17 6 26 20 30 46 11 55
-20 68 -89 40 -29 -12 -35 -20 -35 -45 0 -29 -1 -30 -37 -24 -21 3 -46 10 -55
14 -9 5 -36 9 -59 9 -39 0 -47 -5 -106 -66 -37 -39 -62 -72 -59 -80 5 -13 34
-18 82 -15 39 3 57 -88 30 -151 -7 -18 -18 -46 -23 -63 -6 -22 -29 -44 -83
-81 -46 -31 -73 -56 -71 -65 2 -8 3 -23 3 -35 -1 -13 7 -25 23 -32 23 -11 23
-12 9 -41 -11 -21 -21 -29 -37 -27 -35 4 -48 16 -42 37 8 23 -3 24 -33 4 -15
-12 -27 -13 -40 -6 -41 22 -41 -4 -1 -85 37 -77 38 -83 25 -109 -8 -16 -18
-45 -21 -65 -9 -55 -59 -110 -99 -110 -38 0 -61 -16 -69 -48 -3 -14 1 -25 11
-31 15 -9 15 -10 -2 -17 -14 -5 -24 -1 -38 16 -18 22 -18 24 -1 42 26 29 -2
43 -35 17 -14 -10 -31 -19 -38 -19 -25 0 -15 -24 21 -53 36 -28 65 -83 65
-120 0 -24 -46 -87 -64 -87 -7 0 -30 21 -52 46 -59 69 -65 75 -75 68 -15 -9
-8 -122 8 -128 7 -3 13 -16 13 -29 0 -13 9 -32 20 -42 12 -11 20 -28 18 -40
-1 -12 5 -33 15 -48 9 -14 17 -31 17 -37 0 -5 5 -10 10 -10 6 0 10 -6 10 -14
0 -8 12 -29 27 -46 23 -27 25 -35 14 -52 -10 -16 -8 -22 11 -38 13 -11 31 -19
41 -20 25 0 117 -48 117 -61 0 -7 -7 -8 -17 -4 -51 23 -121 44 -141 45 -42 0
-76 35 -164 169 -112 171 -116 186 -23 96 85 -84 88 -75 25 63 -26 54 -30 76
-30 145 0 80 -13 126 -37 134 -7 3 -13 -9 -15 -29 l-3 -32 -19 28 c-10 16 -19
34 -20 40 -2 6 -24 33 -50 59 l-47 49 -37 -15 c-20 -8 -41 -22 -47 -32 -5 -9
-29 -35 -51 -58 -38 -39 -42 -48 -49 -112 -7 -73 -36 -155 -54 -155 -6 0 -11
6 -11 13 0 6 -22 59 -50 117 -37 77 -50 117 -50 150 -1 50 -18 80 -46 80 -20
0 -84 57 -84 76 0 17 -22 22 -110 23 -41 1 -79 6 -84 11 -6 6 -19 10 -30 10
-42 0 -97 22 -130 51 -35 31 -66 38 -66 16 0 -8 24 -40 53 -72 l54 -58 17 24
c11 16 19 20 24 13 4 -6 21 -19 39 -27 17 -9 34 -26 38 -37 3 -11 11 -20 16
-20 32 0 -28 -90 -88 -131 -23 -17 -71 -40 -105 -53 -96 -36 -118 -48 -118
-62 0 -23 18 -25 79 -9 32 8 62 15 65 15 14 0 4 -45 -25 -122 -25 -64 -43 -93
-87 -137 -30 -31 -71 -79 -90 -108 -37 -56 -37 -52 -12 -188 22 -119 -5 -182
-88 -205 -52 -14 -58 -23 -41 -73 l13 -40 -42 -36 c-25 -22 -42 -45 -42 -58 0
-30 -84 -130 -128 -152 -20 -10 -63 -24 -95 -32 -64 -14 -71 -10 -83 41 -3 14
-19 64 -35 112 -16 47 -29 94 -29 103 0 9 -13 50 -30 92 -35 87 -37 122 -10
182 11 24 20 53 20 65 0 43 -31 112 -71 161 -41 49 -41 50 -34 112 9 88 2 107
-40 100 -29 -5 -34 -2 -39 19 -9 35 -48 41 -93 13 -22 -13 -57 -23 -83 -25
-25 -1 -64 -5 -87 -9 -35 -6 -43 -5 -52 13 -6 11 -20 24 -31 27 -11 4 -29 24
-40 46 -11 21 -25 39 -30 39 -5 0 -21 17 -34 38 -23 35 -25 44 -22 147 4 131
23 180 111 276 39 41 55 67 55 86 0 39 55 93 95 93 16 0 46 9 66 19 20 11 68
22 115 26 58 5 84 13 97 26 23 25 37 24 37 -1 0 -11 -4 -20 -10 -20 -19 0 -10
-17 14 -28 19 -8 22 -16 18 -37 -5 -30 9 -45 46 -45 13 0 40 -11 60 -25 39
-26 104 -35 100 -13 -4 19 38 21 74 4 34 -16 143 -27 189 -19 21 4 28 12 32
37 3 17 9 45 12 62 6 26 4 31 -12 31 -109 -1 -153 4 -153 18 0 9 -9 34 -21 56
-20 40 -21 40 -40 23 -18 -16 -18 -19 -3 -35 9 -11 14 -25 10 -35 -6 -15 -9
-15 -29 5 -13 11 -31 21 -41 21 -10 0 -21 12 -27 30 -6 17 -14 30 -17 30 -4 0
-20 -16 -35 -36 -31 -38 -50 -35 -61 11 -4 14 -13 25 -22 25 -8 0 -18 8 -21
18 -4 9 -24 34 -45 56 -36 36 -40 38 -56 23 -16 -15 -20 -15 -40 -1 -20 14
-22 13 -41 -25 -11 -21 -32 -48 -46 -59 -15 -12 -25 -30 -25 -46 0 -23 -9 -31
-52 -51 -65 -30 -85 -31 -93 -5 -4 13 -19 23 -36 27 -24 4 -28 9 -22 22 4 9 7
42 7 74 -2 54 0 58 24 64 14 3 38 1 53 -4 25 -10 119 0 119 12 0 2 -16 21 -35
42 -19 21 -35 32 -35 25 0 -7 -5 -10 -10 -7 -6 4 -8 15 -5 25 3 10 1 21 -5 25
-20 13 -9 24 43 40 28 10 56 21 61 26 20 18 -5 21 -53 5 -27 -9 -55 -16 -60
-16 -21 0 -11 27 14 38 21 10 23 15 15 29 -5 10 -14 30 -20 45 -11 33 -40 28
-38 -5 2 -34 -13 -77 -27 -77 -7 0 -20 -3 -29 -6 -13 -5 -16 1 -16 30 0 20 -4
36 -10 36 -5 0 -10 7 -10 15 0 8 5 15 10 15 6 0 10 -4 10 -9 0 -5 9 -7 20 -4
11 3 20 12 20 19 0 8 7 17 15 20 10 4 14 17 12 37 -2 29 1 32 33 37 46 7 88
-24 64 -47 -13 -14 -10 -19 24 -52 21 -20 46 -47 55 -60 l16 -24 28 30 c34 36
108 51 169 34 43 -12 113 -14 138 -5 9 3 16 15 16 25 0 10 3 18 8 18 22 -4 30
6 47 56 16 47 22 55 44 56 23 0 24 1 6 9 -11 4 -32 6 -47 3 -23 -5 -29 0 -42
31 -13 32 -19 36 -50 36 -33 0 -36 -3 -36 -28 0 -17 8 -32 20 -40 20 -12 20
-13 3 -43 -10 -16 -30 -41 -44 -55 -22 -21 -31 -24 -47 -15 -11 6 -22 21 -24
32 -3 25 -54 67 -65 55 -4 -4 2 -24 13 -44 22 -39 21 -72 -1 -72 -17 0 -61 92
-68 140 -5 36 4 49 101 145 6 6 36 38 66 71 47 51 67 65 119 82 89 30 157 33
157 7 0 -8 8 -15 18 -15 37 0 155 -45 179 -69 l25 -26 -23 -6 c-13 -4 -43 -7
-66 -8 -24 -1 -43 -5 -43 -9 0 -17 26 -41 52 -47 22 -6 32 -1 52 20 18 20 39
29 71 33 25 2 45 9 45 13 0 5 -6 9 -14 9 -7 0 -19 7 -26 15 -11 13 -8 15 18
15 17 0 34 -4 37 -10 3 -5 21 -10 40 -10 19 0 37 5 40 10 3 6 28 10 55 10 48
0 120 25 120 42 0 16 48 8 105 -17 32 -14 60 -24 63 -21 3 3 -17 15 -44 27
l-49 21 33 13 c24 11 32 20 32 39 0 23 4 25 30 23 36 -4 41 -8 44 -39 2 -12 9
-43 16 -67 13 -41 13 -44 -11 -62 -25 -19 -23 -24 5 -13 25 10 40 43 26 59
-16 20 -16 75 1 86 8 5 28 9 44 10 17 0 48 6 70 14 l40 13 -39 1 c-46 1 -44 9
3 13 24 2 36 9 41 24 9 24 25 28 208 60 69 12 102 22 102 31 0 16 34 17 63 1z
m-673 -17 c0 -4 -37 -19 -82 -31 -92 -25 -121 -49 -115 -92 3 -23 0 -28 -17
-28 -12 0 -29 7 -40 15 -18 14 -18 15 9 47 39 46 73 66 125 74 25 4 54 10 65
15 27 11 55 11 55 0z m-3015 -12 c4 -6 13 -8 21 -5 8 3 21 3 29 0 26 -10 -3
-34 -41 -34 -23 0 -34 5 -34 15 0 7 -8 19 -17 24 -16 9 -14 10 9 11 15 0 30
-5 33 -11z m4378 -10 c65 -18 44 -35 -51 -43 -57 -5 -64 -1 -51 32 9 25 40 29
102 11z m143 -30 c3 -5 -8 -9 -25 -9 -31 0 -50 15 -29 23 17 5 47 -3 54 -14z
m-4496 -44 c0 -3 -15 -11 -32 -19 l-33 -14 35 -1 c43 -1 28 -18 -20 -23 -30
-3 -35 0 -38 21 -2 13 2 28 10 32 14 9 78 12 78 4z m408 -38 c2 -16 11 -30 20
-33 9 -3 25 -10 36 -16 12 -6 22 -6 29 1 8 8 16 6 29 -6 23 -21 23 -29 -2 -36
-29 -7 -25 -26 8 -33 47 -10 74 -24 69 -37 -2 -6 -10 -12 -18 -13 -8 0 -31 -4
-52 -9 -31 -6 -35 -10 -26 -22 15 -17 -3 -56 -38 -79 -23 -14 -26 -14 -59 15
-19 17 -45 32 -57 32 -62 3 -156 -4 -184 -14 -27 -9 -35 -8 -53 8 -11 10 -20
13 -20 7 0 -7 -15 -12 -35 -12 -27 0 -43 -9 -75 -41 -24 -25 -39 -48 -36 -56
4 -8 6 -22 6 -32 0 -19 58 -55 107 -66 38 -8 49 -19 66 -70 17 -48 37 -57 37
-17 0 33 13 47 53 57 19 5 26 12 23 24 -16 55 -17 69 -1 84 13 14 14 23 6 54
-8 28 -7 39 2 45 19 12 60 9 81 -7 11 -8 27 -15 36 -15 9 0 31 -16 48 -36 23
-26 37 -34 50 -29 38 16 47 9 78 -55 17 -35 45 -76 63 -90 38 -33 34 -53 -18
-80 l-36 -19 43 -7 c33 -5 46 -13 57 -35 27 -51 21 -58 -45 -55 -68 3 -78 9
-60 31 9 11 10 18 1 29 -14 17 -168 21 -188 5 -24 -21 -13 -30 17 -14 36 19
43 16 60 -25 7 -16 16 -30 21 -30 15 0 40 -58 28 -65 -19 -12 -124 -23 -135
-14 -6 5 -30 -9 -61 -36 -28 -25 -60 -45 -71 -45 -15 0 -30 -21 -61 -84 -25
-52 -49 -87 -61 -91 -11 -4 -36 -21 -55 -39 -28 -27 -36 -42 -41 -88 -4 -37
-3 -58 5 -62 20 -13 12 -36 -13 -36 -31 0 -50 23 -41 50 5 16 0 30 -21 51 -34
36 -79 38 -119 7 -22 -17 -31 -19 -46 -10 -25 16 -44 15 -79 -3 -32 -17 -60
-62 -52 -84 2 -8 -3 -18 -12 -23 -10 -6 -16 -22 -16 -48 0 -35 5 -43 42 -70
22 -16 49 -30 59 -30 27 0 49 11 49 25 0 17 44 45 70 45 11 0 20 -7 20 -15 0
-8 -7 -15 -15 -15 -9 0 -15 -9 -15 -23 0 -13 -7 -32 -15 -43 -8 -10 -15 -22
-15 -26 0 -4 36 -10 80 -14 84 -7 96 -18 49 -41 -13 -7 -24 -17 -23 -23 1 -5
2 -28 3 -50 1 -54 29 -66 84 -38 27 15 47 18 72 14 33 -6 34 -5 41 29 5 28 11
35 30 35 13 0 32 -9 41 -20 10 -11 25 -20 33 -20 9 0 20 -4 25 -9 16 -14 63
-22 70 -11 12 19 31 10 90 -45 32 -30 62 -55 68 -55 5 0 20 -9 34 -20 14 -11
29 -17 34 -14 5 3 19 2 30 -1 24 -8 62 -85 53 -108 -4 -11 8 -19 50 -31 30 -9
58 -20 61 -26 3 -5 27 -12 53 -16 48 -7 116 -36 127 -54 3 -5 15 -10 25 -10
25 0 52 -41 44 -66 -4 -10 -27 -51 -50 -90 -30 -47 -44 -82 -44 -105 0 -19
-13 -72 -30 -119 -16 -47 -30 -86 -30 -87 0 -2 -14 -3 -30 -3 -17 0 -50 -10
-74 -22 -33 -18 -43 -29 -43 -48 0 -34 -23 -89 -56 -137 -15 -21 -27 -44 -27
-49 0 -20 -23 -34 -37 -23 -18 16 -29 -16 -13 -36 15 -18 15 -17 -30 -36 -19
-7 -52 -25 -73 -39 -33 -21 -38 -29 -33 -52 3 -14 1 -28 -5 -30 -5 -2 -11 -14
-13 -28 -2 -14 -7 -33 -11 -44 -6 -13 -3 -21 8 -28 23 -12 21 -44 -4 -79 -18
-26 -19 -34 -9 -59 6 -15 21 -31 33 -34 12 -3 31 -12 42 -20 17 -14 18 -17 5
-26 -21 -14 -100 -13 -100 2 0 19 -31 48 -52 48 -10 0 -18 5 -18 11 0 5 -4 8
-9 5 -20 -12 -42 7 -40 33 2 14 -5 38 -15 53 -19 28 -16 70 6 115 8 17 8 26
-3 39 -15 18 -23 71 -22 154 2 266 0 392 -5 430 -6 41 -11 47 -52 67 -56 28
-95 73 -115 133 -8 25 -31 71 -51 101 -26 40 -33 60 -29 79 4 14 6 40 6 57 -1
21 11 53 31 85 28 44 33 63 33 113 0 56 -2 60 -24 63 -14 2 -30 -3 -36 -12
-11 -14 -17 -12 -56 12 -24 16 -57 45 -73 66 -21 28 -55 50 -132 87 -57 27
-108 49 -114 49 -17 0 -94 47 -115 70 -12 13 -16 28 -12 48 5 23 -3 40 -38 88
-25 32 -51 77 -58 98 -7 22 -18 41 -24 43 -11 4 5 -57 40 -152 19 -50 14 -56
-15 -19 -13 16 -31 37 -40 46 -10 10 -18 27 -18 38 0 32 -47 128 -84 171 -58
68 -68 217 -19 271 9 10 20 39 24 66 6 41 4 52 -18 84 -24 35 -24 66 -1 52 8
-5 9 -1 5 10 -4 10 -7 24 -7 32 0 8 -17 33 -37 55 -21 23 -43 53 -48 67 -9 20
-25 29 -75 43 -72 20 -136 24 -145 9 -3 -5 -22 -10 -40 -10 -26 0 -33 3 -29
15 11 27 -11 16 -51 -26 -40 -41 -105 -79 -176 -104 -69 -25 -51 -1 33 42 80
40 82 42 46 42 -20 1 -40 6 -43 11 -3 6 -15 10 -26 10 -12 0 -19 7 -19 19 0
11 -8 21 -17 23 -14 3 -11 8 13 21 17 9 34 25 37 37 3 11 13 20 25 20 27 0 84
25 75 33 -3 4 -21 5 -38 1 -32 -6 -50 6 -57 36 -2 12 10 16 56 20 l60 5 -37
25 c-20 14 -37 28 -37 31 0 4 20 9 45 12 24 4 72 18 106 32 59 25 63 26 123
12 33 -9 95 -18 136 -21 41 -4 96 -14 121 -22 44 -16 48 -16 103 5 65 24 118
27 135 7 9 -10 27 -13 71 -9 67 6 102 0 125 -23 26 -26 285 -19 301 8 4 7 9 6
13 -1 5 -8 16 -8 39 0 33 11 40 23 22 34 -23 14 -8 33 31 39 29 5 48 2 68 -10
37 -22 66 -13 51 15 -15 28 -13 31 18 32 15 0 36 4 47 9 11 5 61 8 110 7 l90
-2 3 -28z m4718 -11 c25 -19 13 -30 -25 -21 -20 4 -28 11 -24 21 7 18 24 18
49 0z m-3846 -130 c0 -11 -19 -15 -25 -6 -3 5 1 10 9 10 9 0 16 -2 16 -4z
m188 -36 c17 -11 32 -24 32 -29 0 -8 -49 -22 -128 -35 -30 -5 -33 -4 -27 14 4
13 1 22 -9 26 -29 11 -17 24 22 24 20 0 44 5 52 10 20 13 20 13 58 -10z m-163
0 c3 -5 -1 -10 -10 -10 -9 0 -13 5 -10 10 3 6 8 10 10 10 2 0 7 -4 10 -10z
m4095 -60 c0 -5 -12 -10 -26 -10 -14 0 -23 4 -19 10 3 6 15 10 26 10 10 0 19
-4 19 -10z m-826 -351 c14 -56 23 -72 42 -79 21 -9 23 -12 12 -35 -10 -22 -9
-29 6 -43 14 -12 20 -14 23 -4 5 13 33 17 33 5 0 -5 -18 -28 -39 -52 -38 -44
-38 -44 -50 -22 -7 12 -15 54 -18 94 -4 41 -16 94 -29 124 -21 47 -23 83 -5
83 4 0 15 -32 25 -71z m44 -326 c2 -64 1 -70 -29 -102 -22 -25 -33 -31 -39
-22 -5 10 -17 7 -49 -13 -22 -15 -41 -30 -41 -35 0 -15 -31 -21 -52 -10 -18
10 -18 12 -4 28 9 10 16 23 16 29 0 7 6 12 13 12 8 0 24 11 37 25 13 14 31 25
40 25 22 0 47 28 62 71 9 27 23 45 43 59 1 0 2 -30 3 -67z m-2627 -42 c22 -18
22 -19 6 -36 -10 -10 -19 -16 -20 -14 -5 7 -27 60 -27 64 0 11 19 4 41 -14z
m2299 -333 c0 -7 -7 -22 -15 -32 -9 -11 -12 -29 -9 -40 5 -19 4 -19 -9 -6 -22
22 -11 90 14 90 10 0 19 -6 19 -12z m-4263 -40 c15 -7 30 -15 33 -19 10 -12
68 -38 73 -32 11 10 57 -7 57 -22 0 -8 8 -15 18 -15 27 0 34 -11 15 -25 -12
-9 -27 -9 -56 -2 -28 7 -45 7 -58 -1 -23 -14 -59 -16 -59 -2 0 5 9 14 20 20
28 15 25 28 -7 36 -16 4 -37 13 -48 20 -11 8 -26 14 -35 14 -8 0 -22 5 -30 10
-13 9 -13 11 0 20 20 13 43 12 77 -2z m4283 -159 c0 -10 -4 -19 -10 -19 -5 0
-8 -10 -6 -22 3 -13 5 -29 5 -35 1 -7 5 -12 10 -10 5 1 10 -2 11 -6 3 -13 -22
-67 -31 -67 -16 0 -18 17 -5 36 18 24 10 50 -10 33 -21 -17 -26 -6 -14 26 8
21 7 33 -3 48 -10 15 -11 28 -3 54 l11 34 23 -26 c12 -14 22 -35 22 -46z m-70
-119 c0 -19 -11 -26 -23 -14 -8 8 3 34 14 34 5 0 9 -9 9 -20z m160 0 c9 -16 8
-20 -7 -21 -15 0 -14 -2 3 -9 28 -11 21 -56 -9 -64 -43 -11 -70 -7 -63 10 3 9
6 20 6 25 0 5 7 9 15 9 8 0 15 5 15 10 0 6 -6 10 -14 10 -23 0 -28 17 -10 34
21 22 51 20 64 -4z m-925 -80 c10 -44 -27 -83 -41 -45 -7 17 14 75 26 75 5 0
11 -14 15 -30z m763 -65 c-1 -19 -6 -35 -10 -35 -4 0 -8 -6 -8 -13 0 -25 41
-51 88 -57 26 -3 47 -9 47 -15 1 -5 4 -20 9 -32 4 -13 4 -28 0 -35 -11 -18
-11 -52 0 -59 17 -13 -3 -26 -32 -21 -39 5 -65 50 -56 96 5 32 4 36 -20 42
-42 10 -58 -1 -46 -32 8 -19 7 -31 0 -38 -5 -5 -10 -19 -10 -29 0 -42 -103 11
-132 68 -15 31 -15 35 -1 47 9 7 22 28 30 46 8 19 20 32 31 32 10 0 31 13 48
28 24 24 41 35 62 41 1 1 2 -15 0 -34z m202 -67 c0 -26 -14 -36 -39 -26 -23 8
-24 9 -5 23 24 18 44 19 44 3z m46 -78 c2 -48 -5 -50 -28 -10 -16 28 -16 30 0
40 26 14 27 13 28 -30z m-56 26 c0 -11 -19 -15 -25 -6 -3 5 1 10 9 10 9 0 16
-2 16 -4z m224 -71 c31 11 51 13 63 6 10 -5 33 -15 51 -22 18 -6 41 -22 51
-35 22 -28 59 -31 102 -8 17 8 39 12 50 9 18 -6 20 -4 14 14 -10 31 1 25 19
-11 22 -44 20 -51 -10 -31 -21 13 -30 14 -45 5 -10 -7 -28 -12 -39 -12 -32 0
-35 -27 -6 -70 l26 -40 -24 0 c-13 0 -42 15 -64 33 -40 33 -41 34 -103 25 -34
-4 -64 -6 -66 -4 -2 2 1 15 6 30 7 18 7 26 0 26 -16 0 -81 31 -101 48 -14 12
-21 12 -32 3 -10 -8 -16 -9 -21 -1 -3 6 -12 7 -18 3 -7 -4 -22 -6 -35 -4 -17
2 -25 -3 -29 -18 -6 -25 -19 -27 -27 -4 -8 20 9 37 52 51 24 8 32 8 32 -1 1
-18 29 35 30 55 0 12 11 5 40 -23 l39 -39 45 15z m436 -95 c7 -13 18 -19 28
-16 18 5 69 -30 59 -41 -4 -3 -12 -1 -19 4 -7 6 -37 18 -65 28 -53 19 -64 29
-40 38 21 9 26 7 37 -13z m-820 -70 c0 -12 -77 -14 -84 -2 -2 4 15 9 40 10 24
1 44 -3 44 -8z m110 -10 c0 -5 -9 -10 -21 -10 -11 0 -17 5 -14 10 3 6 13 10
21 10 8 0 14 -4 14 -10z m-1590 -73 l19 -43 -41 -111 c-37 -103 -66 -153 -88
-153 -15 0 -70 51 -70 66 0 8 10 25 23 38 22 22 22 25 8 56 -13 27 -14 34 -3
38 28 9 80 63 103 107 13 25 25 45 27 45 2 0 12 -19 22 -43z m1828 17 c36 -18
35 -15 23 -47 -9 -22 -5 -28 30 -53 30 -21 43 -24 51 -16 7 7 9 12 4 12 -4 0
0 10 8 22 9 12 16 36 16 54 0 17 3 34 7 37 10 10 63 -92 63 -121 0 -13 12 -41
28 -61 43 -57 70 -121 77 -183 8 -68 1 -82 -72 -161 -29 -32 -53 -63 -53 -68
0 -21 -43 -67 -57 -62 -8 3 -18 1 -22 -4 -7 -12 -139 4 -158 19 -6 5 -13 21
-15 36 -2 18 -10 28 -26 32 -12 3 -31 19 -41 36 -26 42 -78 52 -155 30 -30 -9
-58 -21 -61 -26 -3 -6 -20 -10 -37 -10 -17 0 -40 -8 -50 -17 -15 -13 -26 -15
-56 -7 -32 8 -36 13 -33 34 6 33 4 115 -4 166 -5 32 -2 51 14 82 18 35 30 44
82 63 33 12 63 28 66 35 2 7 10 11 18 8 7 -3 21 10 33 31 12 19 34 40 49 46
16 6 38 20 51 32 19 18 26 19 42 9 14 -9 20 -9 20 -1 0 6 12 24 28 39 32 32
83 38 130 14z m690 -569 c7 -14 12 -35 12 -45 0 -15 7 -20 25 -20 22 0 20 -4
-24 -45 -26 -25 -56 -45 -65 -45 -9 0 -24 -9 -33 -20 -10 -11 -22 -20 -28 -20
-6 0 -27 -16 -46 -36 -18 -19 -49 -44 -66 -55 -30 -19 -34 -19 -49 -5 -22 23
-11 43 31 55 19 5 56 28 82 51 26 23 59 44 74 47 32 6 59 61 59 121 0 48 11
54 28 17z m-614 -186 c-15 -16 -54 -27 -54 -15 0 2 -3 11 -6 20 -5 12 1 16 24
16 17 0 34 5 38 12 6 9 9 9 12 -1 2 -6 -4 -21 -14 -32z"/>
<path d="M5245 6590 c-4 -6 10 -10 34 -10 22 0 43 5 46 10 4 6 -10 10 -34 10
-22 0 -43 -4 -46 -10z"/>
<path d="M7985 6499 c-16 -6 -14 -8 13 -8 33 -1 41 4 20 12 -7 2 -22 1 -33 -4z"/>
<path d="M5447 6069 c-34 -28 -37 -35 -37 -80 0 -44 2 -49 23 -49 13 0 27 4
33 9 10 10 96 15 179 9 47 -3 50 -2 53 22 3 22 -4 29 -48 47 -52 22 -64 44
-32 62 14 9 12 10 -15 11 -22 0 -36 -6 -43 -20 -6 -11 -19 -20 -30 -20 -10 0
-22 9 -25 20 -8 26 -14 25 -58 -11z"/>
<path d="M5849 6093 c-20 -2 -44 -12 -53 -22 -16 -17 -15 -21 19 -66 26 -34
35 -54 31 -70 -4 -14 0 -28 9 -35 14 -11 14 -15 -1 -31 -16 -17 -16 -19 2 -26
24 -9 81 -9 90 0 4 4 -1 26 -10 50 -9 24 -14 51 -11 58 3 9 -6 25 -20 39 -31
29 -31 37 0 62 20 16 23 23 14 34 -6 8 -17 13 -23 12 -6 -1 -27 -3 -47 -5z"/>
<path d="M5110 6039 c0 -15 50 -78 71 -90 36 -19 29 11 -12 56 -41 45 -59 55
-59 34z"/>
<path d="M7256 5894 c-33 -29 -25 -45 21 -49 15 -1 43 -6 61 -9 28 -7 33 -4
41 16 11 30 4 41 -26 35 -16 -3 -27 1 -34 14 -13 25 -28 23 -63 -7z"/>
<path d="M5501 5633 c8 -10 26 -31 42 -48 15 -16 32 -48 38 -70 6 -22 16 -47
23 -55 7 -8 21 -37 30 -63 19 -51 125 -175 126 -147 0 18 -75 176 -95 200 -7
8 -20 35 -30 60 -11 29 -36 62 -71 93 -54 47 -90 64 -63 30z"/>
<path d="M3289 6729 c16 -6 28 -6 35 1 7 7 -1 10 -24 9 -33 0 -34 -1 -11 -10z"/>
<path d="M3350 6733 c0 -5 16 -9 35 -10 19 -2 35 2 35 7 0 6 -16 10 -35 10
-19 0 -35 -3 -35 -7z"/>
<path d="M3425 6702 c-9 -7 -27 -13 -113 -38 -7 -2 -11 -8 -7 -14 3 -5 -9 -13
-26 -18 -18 -4 -34 -13 -37 -20 -4 -13 7 -15 115 -15 65 0 75 3 109 31 l38 32
-24 25 c-25 26 -39 31 -55 17z"/>
<path d="M7925 4759 c-7 -10 12 -39 25 -39 4 0 10 6 13 13 6 17 -29 41 -38 26z"/>
</g>
</svg>
